<?xml version="1.0" encoding="utf-8"?>
<!-- Generator: Adobe Illustrator 24.1.0, SVG Export Plug-In . SVG Version: 6.00 Build 0)  -->
<svg version="1.1" id="Layer_1" xmlns="http://www.w3.org/2000/svg" xmlns:xlink="http://www.w3.org/1999/xlink" x="0px" y="0px"
	 viewBox="0 0 32 32" style="enable-background:new 0 0 32 32;" xml:space="preserve">
<style type="text/css">
	.st0{fill-rule:evenodd;clip-rule:evenodd;fill:#F05423;}
	.st1{fill-rule:evenodd;clip-rule:evenodd;fill:#FFD475;}
	.st2{fill-rule:evenodd;clip-rule:evenodd;fill:#BD97C6;}
	.st3{fill-rule:evenodd;clip-rule:evenodd;fill:#FFFFFF;}
	.st4{fill-rule:evenodd;clip-rule:evenodd;fill:#B4E2F0;}
	.st5{fill:#FFF7D2;}
	.st6{fill:#AF206F;}
</style>
<g>
	<path class="st0" d="M16,0c8.84,0,16,7.16,16,16c0,8.84-7.16,16-16,16C7.16,32,0,24.84,0,16C0,7.16,7.16,0,16,0L16,0z"/>
	<path class="st1" d="M16,1.45c8.03,0,14.55,6.51,14.55,14.54c0,8.04-6.51,14.55-14.55,14.55C7.97,30.55,1.45,24.03,1.45,16
		C1.45,7.97,7.97,1.45,16,1.45L16,1.45z"/>
	<g>
		<path class="st2" d="M16,2.15c7.65,0,13.85,6.2,13.85,13.85c0,7.66-6.2,13.86-13.85,13.86c-7.65,0-13.85-6.2-13.85-13.86
			C2.15,8.35,8.35,2.15,16,2.15L16,2.15z"/>
		<path class="st3" d="M15.38,9.13l-0.2,0.02l-0.04,0.19l-0.16,0.1l-0.24,0.02c-0.02-0.06-0.02-0.1-0.02-0.1h-0.1V9.14h0.4
			l0.09-0.22h0.16l0.18,0.04L15.38,9.13z"/>
		<polygon class="st3" points="14.34,9.49 14.06,9.51 14.07,9.31 14.2,9.14 14.38,9.29 		"/>
		<polygon class="st3" points="22.03,7.75 22.32,7.3 22.69,7.21 22.97,7.33 22.94,7.63 22.36,8.04 22.03,8.04 22.03,7.75 		"/>
		<polygon class="st3" points="22.8,6.87 22.93,6.67 23.39,6.57 23.5,7.14 23.75,7.54 23.91,7.73 24.21,7.84 23.93,8.18 23.38,8.24 
			22.97,8.24 23.02,7.75 23.36,7.67 23.34,7.45 23.01,7.25 22.8,7.1 22.8,6.87 		"/>
		<path class="st4" d="M15.98,2.77c3.43,0,6.56,1.3,8.9,3.44L24.4,6.4l-0.27,0.28l0.06,0.33l0.32,0.05l0.19,0.48l0.55-0.22
			l0.09,0.65h-0.16l-0.46-0.06l-0.51,0.08l-0.49,0.69l-0.7,0.11l-0.1,0.59l0.3,0.07l-0.09,0.39L22.46,9.7l-0.64,0.14l-0.13,0.35
			l0.1,0.74l0.38,0.18l0.63-0.01l0.42-0.03l0.14-0.34l0.66-0.86l0.43,0.09l0.43-0.39l0.08,0.3L26,10.59l-0.13,0.18l-0.47-0.03
			L25.59,11l0.29,0.06l0.35-0.14l-0.01-0.42l0.15-0.07l-0.12-0.13l-0.71-0.39l-0.18-0.52h0.59l0.18,0.18L26.63,10l0.02,0.52
			l0.52,0.56l0.19-0.76l0.36-0.2l0.06,0.63l0.35,0.39h0.14c0.14,0.37,0.28,0.75,0.39,1.12h-0.62l-0.66-0.48l-0.69,0.06v0.42H26.5
			l-0.23-0.17l-1.21-0.3v-0.78l-1.51,0.12l-0.47,0.25h-0.6l-0.29-0.02l-0.73,0.4v0.76l-1.49,1.08l0.12,0.46h0.31l-0.08,0.44
			l-0.21,0.08l-0.02,1.14l1.29,1.47h0.56l0.03-0.09h1.01l0.29-0.27h0.57l0.32,0.32l0.85,0.09l-0.11,1.13l0.95,1.67L25.35,21
			l0.04,0.45l0.39,0.39v1.08l0.51,0.69v0.68c-2.43,3.01-6.14,4.93-10.31,4.93c-6.85,0-12.48-5.21-13.16-11.87l0,0
			c-0.01-0.1-0.02-0.21-0.02-0.31v-0.01C2.77,16.69,2.76,16.35,2.76,16v-0.08v-0.15l0.01-0.19l0.01-0.19v-0.11
			c0.01-0.09,0.01-0.17,0.02-0.25l0.01-0.06c0.11-1.48,0.47-2.88,1.04-4.19v0.72l0.56,0.27v1.07l0.54,0.92l0.43,0.06l0.06-0.31
			l-0.51-0.8l-0.1-0.77h0.31l0.13,0.8l0.75,1.08L5.8,14.16l0.47,0.72l1.18,0.3v-0.19l0.47,0.07l-0.04,0.34l0.37,0.06l0.57,0.16
			l0.81,0.92l1.03,0.08l0.1,0.84l-0.71,0.49l-0.03,0.76l-0.1,0.46l1.02,1.28l0.08,0.44c0,0,0.37,0.1,0.42,0.1
			c0.04,0,0.83,0.6,0.83,0.6v2.31l0.28,0.08l-0.19,1.07l0.47,0.63l-0.09,1.06l0.63,1.09l0.8,0.7l0.8,0.01l0.08-0.26l-0.59-0.5
			l0.04-0.24l0.1-0.31l0.02-0.31l-0.4-0.02l-0.2-0.25l0.33-0.32l0.05-0.24l-0.37-0.1l0.02-0.22l0.53-0.08l0.8-0.39l0.27-0.5
			l0.84-1.08l-0.19-0.84l0.27-0.44l0.77,0.02l0.52-0.41l0.17-1.62l0.58-0.74l0.1-0.47l-0.52-0.17l-0.35-0.58l-1.19-0.01l-0.94-0.36
			l-0.05-0.68l-0.31-0.55l-0.85-0.02l-0.49-0.77l-0.44-0.21l-0.02,0.23l-0.8,0.05l-0.29-0.41l-0.84-0.17l-0.68,0.8l-1.08-0.18
			l-0.08-1.21l-0.79-0.14l0.32-0.59l-0.1-0.35l-1.03,0.69l-0.65-0.07L7.28,14l0.14-0.52l0.35-0.66l0.83-0.42h1.59v0.48l0.57,0.27
			l-0.05-0.83l0.42-0.42l0.83-0.55l0.06-0.39l0.83-0.86l0.88-0.49l-0.08-0.06L14.26,9l0.22,0.06l0.1,0.13l0.23-0.25l0.06-0.03
			l-0.25-0.03l-0.26-0.08V8.54l0.14-0.1l0.3-0.01l0.13,0.06l0.12,0.23l0.14-0.02V8.69l0.04,0.02l0.41-0.06l0.06-0.21l0.23,0.06v0.22
			l-0.22,0.15l0,0l0.03,0.24l0.75,0.23c0,0,0,0,0,0.01l0.18-0.02l0.01-0.32l-0.59-0.27l-0.03-0.16l0.49-0.16l0.02-0.47l-0.51-0.31
			l-0.03-0.8l-0.71,0.35h-0.26l0.06-0.61l-0.96-0.22l-0.39,0.3v0.92l-0.72,0.22l-0.29,0.59l-0.31,0.06V7.67l-0.67-0.09l-0.34-0.22
			l-0.14-0.49l1.21-0.71l0.59-0.18l0.06,0.39l0.33-0.02l0.02-0.2l0.35-0.05l0.01-0.07l-0.15-0.06l-0.03-0.21l0.43-0.04l0.26-0.27
			l0.01-0.02h0.01l0.07-0.08l0.89-0.11l0.39,0.33L14.7,6.14l1.31,0.31l0.17-0.43h0.57l0.21-0.39l-0.41-0.1V5.05l-1.26-0.56
			l-0.88,0.1l-0.5,0.26l0.03,0.63l-0.51-0.08l-0.08-0.35l0.5-0.45l-0.9-0.05l-0.26,0.08l-0.11,0.3l0.34,0.06l-0.07,0.33l-0.57,0.04
			l-0.09,0.23L11.36,5.6c0,0-0.02-0.47-0.06-0.47c-0.03,0,0.65-0.02,0.65-0.02l0.49-0.48L12.18,4.5l-0.36,0.35l-0.59-0.03l-0.36-0.5
			h-0.76L9.3,4.92h0.73l0.06,0.22L9.91,5.31l0.8,0.02l0.13,0.29L9.93,5.59L9.89,5.37L9.31,5.25L9.01,5.08H8.52
			C10.64,3.63,13.21,2.77,15.98,2.77L15.98,2.77z"/>
	</g>
	<path class="st5" d="M26.99,13.81c-0.1-0.21-0.34-0.29-0.55-0.2l-1.07,0.5c-0.61-2.19-2.41-3.5-2.93-3.84
		c-0.27-1.31-1.21-3.2-2.05-3.74c-0.24-0.15-0.47-0.2-0.68-0.14c-1.24,0.34-2.57,2.29-2.97,2.9c-1.47,0.04-2.44,0.38-2.78,0.52
		c-0.37,0.06-1.37,0.27-2.65,1c-0.66-0.32-2.81-1.3-4.05-0.95c-0.21,0.06-0.39,0.22-0.51,0.47c-0.45,0.89-0.27,3,0.17,4.26
		c-0.27,0.56-1.13,2.61-0.52,4.8l-1.17,0.12C5,19.54,4.83,19.75,4.86,19.97c0.02,0.23,0.23,0.39,0.45,0.37l1.38-0.14
		c0.09,0.19,0.19,0.38,0.3,0.58c0.18,0.29,0.36,0.57,0.55,0.82L6.5,22.16c-0.2,0.11-0.28,0.36-0.17,0.56
		c0.09,0.17,0.29,0.25,0.47,0.2c0.03-0.01,0.06-0.02,0.08-0.03l1.19-0.64c0.77,0.85,1.65,1.43,2.68,1.78c1.77,0.61,4,0.52,6.81-0.26
		c0.09-0.02,0.17-0.05,0.26-0.07c0.09-0.02,0.17-0.05,0.26-0.07c2.81-0.78,4.76-1.86,5.97-3.29c0.7-0.83,1.15-1.78,1.37-2.91
		l1.34-0.07c0.03,0,0.06-0.01,0.09-0.01c0.18-0.05,0.31-0.22,0.3-0.42c-0.01-0.23-0.21-0.4-0.43-0.39l-1.18,0.06
		c0.03-0.32,0.05-0.65,0.05-0.99c0-0.22-0.01-0.44-0.04-0.65l1.26-0.59C27,14.26,27.09,14.01,26.99,13.81z"/>
	<path class="st6" d="M26.99,13.81c-0.1-0.21-0.34-0.29-0.55-0.2l-1.07,0.5c-0.61-2.19-2.41-3.5-2.93-3.84
		c-0.27-1.31-1.21-3.2-2.05-3.74c-0.24-0.15-0.47-0.2-0.68-0.14c-1.24,0.34-2.57,2.29-2.97,2.9c-1.47,0.04-2.44,0.38-2.78,0.52
		c-0.37,0.06-1.37,0.27-2.65,1c-0.66-0.32-2.81-1.3-4.05-0.95c-0.21,0.06-0.39,0.22-0.51,0.47c-0.45,0.89-0.27,3,0.17,4.26
		c-0.27,0.56-1.13,2.61-0.52,4.8l-1.17,0.12C5,19.54,4.83,19.75,4.86,19.97c0.02,0.23,0.23,0.39,0.45,0.37l1.38-0.14
		c0.09,0.19,0.19,0.38,0.3,0.58c0.18,0.29,0.36,0.57,0.55,0.82L6.5,22.16c-0.2,0.11-0.28,0.36-0.17,0.56
		c0.09,0.17,0.29,0.25,0.47,0.2c0.03-0.01,0.06-0.02,0.08-0.03l1.19-0.64c0.77,0.85,1.65,1.43,2.68,1.78c1.77,0.61,4,0.52,6.81-0.26
		c0.09-0.02,0.17-0.05,0.26-0.07c0.09-0.02,0.17-0.05,0.26-0.07c2.81-0.78,4.76-1.86,5.97-3.29c0.7-0.83,1.15-1.78,1.37-2.91
		l1.34-0.07c0.03,0,0.06-0.01,0.09-0.01c0.18-0.05,0.31-0.22,0.3-0.42c-0.01-0.23-0.21-0.4-0.43-0.39l-1.18,0.06
		c0.03-0.32,0.05-0.65,0.05-0.99c0-0.22-0.01-0.44-0.04-0.65l1.26-0.59C27,14.26,27.09,14.01,26.99,13.81z M23.36,15.52
		c0.09,0.18,0.29,0.27,0.48,0.22c0.02-0.01,0.04-0.01,0.07-0.02l0.96-0.45c0.01,0.11,0.01,0.22,0.01,0.33c0,0.36-0.02,0.7-0.05,1.03
		l-0.98,0.05c-0.23,0.01-0.4,0.21-0.39,0.43c0.01,0.23,0.21,0.4,0.43,0.39l0.81-0.04c-0.21,0.94-0.6,1.73-1.18,2.43
		c-1.13,1.35-3.03,2.37-5.8,3.12l0,0c-0.03,0.01-0.05,0.02-0.08,0.02c-0.03,0.01-0.05,0.01-0.08,0.02l0,0
		c-2.75,0.79-4.91,0.9-6.58,0.33c-0.86-0.29-1.6-0.77-2.27-1.46l0.71-0.38c0.2-0.11,0.28-0.36,0.17-0.56
		c-0.11-0.2-0.36-0.28-0.56-0.17l-0.87,0.47c-0.2-0.26-0.39-0.54-0.58-0.85c-0.06-0.1-0.11-0.19-0.16-0.29l1.05-0.11
		C8.5,20.01,8.53,20,8.55,20c0.19-0.05,0.32-0.24,0.3-0.44c-0.02-0.23-0.23-0.39-0.45-0.37l-1.29,0.13
		c-0.69-2.28,0.49-4.51,0.5-4.54l0.08-0.14L7.63,14.5C7.37,13.83,7.2,12.88,7.18,12c-0.02-0.98,0.18-1.41,0.26-1.46
		c0.96-0.27,3,0.62,3.71,0.98l0.17,0.09l0.17-0.1c1.35-0.79,2.39-0.98,2.62-1.01l0,0.01c0,0,0.01,0,0.02-0.01c0.02,0,0.02,0,0.03,0
		l0-0.01c0.22-0.09,1.21-0.47,2.77-0.49l0.19,0l0.1-0.16c0.42-0.68,1.71-2.49,2.67-2.76c0.1-0.01,0.48,0.26,0.98,1.11
		c0.44,0.76,0.79,1.66,0.91,2.36l0.03,0.16l0.14,0.08c0.02,0.01,2.18,1.32,2.77,3.62l-1.17,0.55
		C23.35,15.07,23.26,15.31,23.36,15.52z"/>
	<path class="st6" d="M17.41,19.23c-0.22,0.04-0.46,0.03-0.68-0.03c-0.19-0.05-0.32,0-0.45,0.14c-0.22,0.24-0.51,0.37-0.83,0.45
		c-0.38,0.09-0.73,0.01-1.05-0.23c-0.05-0.04-0.1-0.09-0.13-0.14c-0.12-0.16-0.12-0.36-0.02-0.5c0.09-0.13,0.27-0.2,0.45-0.15
		c0.08,0.02,0.16,0.06,0.23,0.1c0.16,0.09,0.33,0.07,0.49,0c0.19-0.09,0.37-0.21,0.48-0.4c0.02-0.04,0.04-0.07,0.07-0.11
		c0.13-0.17,0.3-0.23,0.5-0.17c0.08,0.02,0.16,0.06,0.24,0.09c0.21,0.08,0.43,0.09,0.66,0.05c0.14-0.03,0.26-0.1,0.33-0.22
		c0.07-0.12,0.13-0.24,0.19-0.37c0.02-0.05,0.03-0.1,0.05-0.15c0.1-0.21,0.33-0.25,0.5-0.09c0.07,0.07,0.12,0.15,0.14,0.24
		c0.03,0.13,0.05,0.27,0.01,0.41C18.45,18.73,18.04,19.18,17.41,19.23z"/>
	<path class="st6" d="M20.49,14.19c0.04,0.3-0.2,0.52-0.47,0.44c-0.09-0.02-0.18-0.07-0.26-0.11c-0.18-0.08-0.38-0.13-0.58-0.14
		c-0.11-0.01-0.21,0.03-0.29,0.1c-0.14,0.12-0.23,0.28-0.28,0.45c-0.02,0.08-0.04,0.16-0.07,0.24c-0.09,0.21-0.29,0.32-0.51,0.27
		c-0.19-0.04-0.34-0.22-0.35-0.43c0-0.03,0-0.06,0.01-0.09c0.12-0.66,0.46-1.14,1.1-1.4c0.05-0.02,0.1-0.04,0.15-0.04
		c0.44-0.03,0.86,0.04,1.24,0.28c0.13,0.08,0.23,0.18,0.29,0.33C20.48,14.13,20.49,14.17,20.49,14.19z"/>
	<path class="st6" d="M10.96,16.9c0.13,0.28,0.44,0.34,0.63,0.13c0.06-0.07,0.11-0.15,0.16-0.23c0.11-0.17,0.25-0.31,0.42-0.43
		c0.09-0.07,0.19-0.08,0.3-0.06c0.18,0.03,0.34,0.11,0.48,0.24c0.06,0.06,0.12,0.12,0.19,0.17c0.19,0.13,0.42,0.12,0.58-0.04
		c0.14-0.13,0.17-0.37,0.07-0.55c-0.02-0.03-0.03-0.05-0.05-0.08c-0.45-0.5-1-0.73-1.67-0.61c-0.05,0.01-0.11,0.02-0.15,0.05
		c-0.39,0.21-0.71,0.49-0.91,0.89c-0.07,0.13-0.1,0.28-0.07,0.43C10.94,16.85,10.95,16.89,10.96,16.9z"/>
</g>
</svg>
